<?xml version="1.0" encoding="UTF-8" standalone="no"?>
<svg
   xmlns:dc="http://purl.org/dc/elements/1.1/"
   xmlns:cc="http://creativecommons.org/ns#"
   xmlns:rdf="http://www.w3.org/1999/02/22-rdf-syntax-ns#"
   xmlns:svg="http://www.w3.org/2000/svg"
   xmlns="http://www.w3.org/2000/svg"
   xmlns:sodipodi="http://sodipodi.sourceforge.net/DTD/sodipodi-0.dtd"
   xmlns:inkscape="http://www.inkscape.org/namespaces/inkscape"
   viewBox="0 0 1888.6289 300"
   version="1.1"
   id="svg278"
   sodipodi:docname="logo-mpi-bgc.svg"
   width="1888.6289"
   height="300"
   inkscape:version="0.92.5 (2060ec1f9f, 2020-04-08)">
  <metadata
     id="metadata282">
    <rdf:RDF>
      <cc:Work
         rdf:about="">
        <dc:format>image/svg+xml</dc:format>
        <dc:type
           rdf:resource="http://purl.org/dc/dcmitype/StillImage" />
      </cc:Work>
    </rdf:RDF>
  </metadata>
  <sodipodi:namedview
     pagecolor="#ffffff"
     bordercolor="#666666"
     borderopacity="1"
     objecttolerance="10"
     gridtolerance="10"
     guidetolerance="10"
     inkscape:pageopacity="0"
     inkscape:pageshadow="2"
     inkscape:window-width="2995"
     inkscape:window-height="1907"
     id="namedview280"
     showgrid="false"
     inkscape:zoom="0.4966718"
     inkscape:cx="1157.576"
     inkscape:cy="630.96392"
     inkscape:window-x="72"
     inkscape:window-y="34"
     inkscape:window-maximized="0"
     inkscape:current-layer="svg278" />
  <defs
     id="defs967" />
  <defs
     id="defs210">
    <style
       id="style208">.minerva-base-style{}</style>
  </defs>
  <g
     id="g321">
    <g
       id="g256"
       style="fill:#006c66"
       transform="scale(1.4285714)">
      <title
         id="title212">minerva</title>
      <path
         id="path214"
         d="M 105,0 A 105,105 0 1 0 210,105 105.1,105.1 0 0 0 105,0 Z m 0,207.1 A 102.1,102.1 0 1 1 207.1,105 102.2,102.2 0 0 1 105,207.1 Z"
         inkscape:connector-curvature="0" />
      <path
         id="path216"
         d="m 166.6,97 c -1.4,-3.1 -0.5,-5.1 -0.9,-7.3 -0.4,-2.2 -2.7,-7 -4.3,-10.8 -0.7,-1.7 3.8,-1.3 0.4,-7.6 0,-0.2 4.7,-2 0,-5.5 a 26.4,26.4 0 0 1 -6,-6.7 1,1 0 0 1 0,-1.3 c 2.7,-2.4 2.8,-5.8 -0.1,-7.5 -2.9,-1.7 -4.5,0 -6.7,1.4 -0.7,0.5 -1.1,0.8 -1.9,0.5 L 145.3,51 c 2.7,-2.6 3.3,-5.2 3.1,-5.6 -0.2,-0.4 -4.6,-1.3 -10.2,1 l -0.4,-0.3 c 2.3,-3.9 1,-6.7 0.9,-6.9 h -0.1 A 81,81 0 0 1 151,25.9 h 0.1 c 0.2,-0.3 0.3,-0.6 -0.2,-0.9 l -1,-0.6 A 92.4,92.4 0 0 0 12.7,105 c 0,29.5 15,57.9 39.4,75.6 a 13.5,13.5 0 0 0 2.8,1.6 1.1,1.1 0 0 0 1.1,-0.2 l 0.3,-0.5 a 1,1 0 0 0 0.3,-0.8 c 0,-0.7 -0.9,-1.3 -2.1,-3 a 27.7,27.7 0 0 1 -4.7,-15.1 22.1,22.1 0 0 1 4.5,-13.7 c 3.7,3.9 11.7,10.9 11.5,17.4 -0.2,6.5 -6.9,6.8 -5.4,12.2 0.9,3.4 3.4,2 3.9,4.6 0.7,4.4 6.7,7.3 9.3,6.9 0.7,-0.1 1.2,0.4 2.4,1.7 1.2,1.3 6.2,1.6 8.2,1.2 2,-0.4 4.1,1.4 8,0.9 3.9,-0.5 6.1,-0.9 8.2,-0.9 2.1,0 22.5,-0.3 36,1.8 2.4,0.4 3.1,-0.7 2.1,-2.5 -4.9,-8.6 -5.6,-15.8 -2.8,-25 5,0.4 12.2,1.7 21.6,-4 a 11,11 0 0 0 5.1,-9.5 c -0.1,-2.1 -1,-4.7 -0.5,-6.7 0.5,-2 1.3,-2.7 2.1,-3.2 3.6,-2.6 1,-4.6 0.4,-4.8 a 3.4,3.4 0 0 0 1.1,-4.6 c -0.7,-0.7 -2.7,-6.2 -0.4,-7.3 2.3,-1.1 5.3,-1.8 8.1,-3.1 a 4.5,4.5 0 0 0 2.4,-6 c -1.4,-3.6 -8.8,-20.6 -9,-21 z M 64.7,179.1 c -0.7,0.2 -2.9,0.3 -2.4,-2.7 0.5,-3 2.3,-2.6 3.3,-1.6 1,1 -0.7,2.8 -0.9,4.3 z m 87,-125.9 c 1.2,-0.8 2.5,-1.1 3.3,-0.4 2.6,2.6 -2.9,4.1 -1.8,6.1 a 30.7,30.7 0 0 0 7.5,8.4 c 1.2,1 1.4,3.1 -3.3,4.1 -4.7,1 -23.6,5.9 -33.6,16.5 -12.5,13.2 -20.4,30.3 -21.5,28 -1.1,-2.3 -3.6,-2.8 -3.2,-3.5 17.9,-30.8 46,-55.1 52.6,-59.2 z m 8.2,21.7 c -1,2.9 -9.1,5.5 -8.7,3.5 0.4,-2 0,-2.2 0.6,-2.3 0.6,-0.1 3.5,-1.1 7.5,-2.1 0.4,-0.1 0.9,0.1 0.6,0.9 z m -20.6,5.3 c -0.2,-1.2 8.5,-4.1 8.8,-3.3 0.3,0.8 -1.8,6 -4.7,7 -2.9,1 -4.7,0.9 -4.6,0.4 a 11,11 0 0 0 0.5,-4.1 z M 119,125.8 c -4,2.5 -6.2,-2.2 -6.8,-3.1 a 3.7,3.7 0 0 1 -0.5,-3.1 c 0.3,-1.4 0.5,-3.3 -0.4,-9.3 -0.4,-2.7 5,-9.2 6.3,-10.4 1.3,-1.2 3.1,0.6 3.2,2.6 0.3,3.6 -1.8,5.6 -3.9,7.2 -2.1,1.6 -3.1,4.4 -2.6,5.1 a 1.5,1.5 0 0 0 1.9,-0.9 c 1.5,-3.3 6,-4.9 6.7,-6.7 0.7,-1.8 0.3,-4.4 0.2,-5.6 -0.1,-1.2 0.9,-1.2 1.6,-1.1 0.7,0.1 1.4,1.4 1.8,2.7 2.9,7.5 -4.3,12 -5.5,13.8 -1.2,1.8 1.1,6.9 -2,8.8 z m 6.1,-29.1 c -2.2,1.5 -5.3,-0.5 -4.7,-1.4 a 43.7,43.7 0 0 1 11.5,-11 c 3.4,-2.1 3.8,-2.3 4,-1.1 a 10.6,10.6 0 0 1 -2.6,7.5 c -2.3,2.5 -4.6,2.3 -5.8,2.6 -1.2,0.3 -0.8,2.3 -2.4,3.4 z m -19.3,25.6 c -1,-0.2 -1.4,-2.1 -1.2,-2.9 0.2,-0.8 3.1,-5.2 4,-6.4 a 0.5,0.5 0 0 1 0.8,0.3 c 0.6,4.1 0,9.8 -3.6,9 z M 138,48.2 a 17.7,17.7 0 0 1 7.5,-1.6 c 0.8,0.1 -1.9,4.8 -6.6,6.8 -4.7,2 -8.5,2.5 -8.9,2.3 -0.4,-0.2 4.1,-5.8 8,-7.5 z m -83.3,78.3 c -1.5,-1.7 -2.8,-2.6 -2.9,-2.5 A 22.4,22.4 0 0 0 48.2,132.9 65.4,65.4 0 0 1 40.7,105 C 39.3,69.6 69,41.1 105.2,41.2 a 56.8,56.8 0 0 1 22.4,4.6 31.3,31.3 0 0 0 -3.7,6.6 c 0,-1.9 -0.5,-3.4 -0.4,-4.6 0.1,-1.2 -5.1,0.9 -9.7,8.3 a 19.9,19.9 0 0 0 -2.2,5.3 c -0.1,-2.8 -0.7,-4.9 -0.9,-4.9 a 16.1,16.1 0 0 0 -8.5,8.8 22.4,22.4 0 0 0 -1.1,3.4 c -0.2,-1.9 -0.7,-3.2 -0.9,-3.2 -0.2,0 -5.9,2.3 -8.6,8.9 A 15.4,15.4 0 0 0 90.5,79 C 90,76.7 89.1,75.3 88.8,75.6 86.9,78 83.1,79.1 81.2,85.2 a 13.2,13.2 0 0 0 -0.7,4.2 c -0.8,-2 -2,-3.2 -2.3,-3.2 -0.3,0 -6.1,5.5 -7,10.9 a 15.8,15.8 0 0 0 0.2,5.8 c -1.1,-1.8 -2.5,-3 -3.1,-4.8 -0.9,0.5 -5.7,5 -5.8,10.7 a 19.7,19.7 0 0 0 0.7,6.1 c -1.6,-2.9 -3.8,-4.2 -4.1,-4.1 -0.3,0.1 -4,4.1 -4.8,11.1 a 11.8,11.8 0 0 0 0.4,4.6 z m 74.1,-79.7 c 2.8,-3.4 7.6,-6.1 8.2,-5.8 0.6,0.3 -0.8,5.6 -3.9,8.6 -3.1,3 -8.1,6.2 -8.6,6.1 -0.5,-0.1 1.7,-5.9 4.3,-8.9 z m -9.3,13 a 21,21 0 0 0 -5.6,6.4 c -0.5,0.9 -1.9,-5 1.7,-10.6 2.2,-3.5 6.6,-6.6 6.5,-6.2 -0.1,0.4 2.1,6.6 -2.6,10.4 z m -10.1,7.5 c -3.4,5.1 -3.6,3.3 -7.3,8.3 -0.2,0.2 -0.2,-6.5 1.1,-9.4 2.1,-4.7 5.7,-7.4 6.2,-7.5 0.5,-0.1 1.9,5.8 0,8.6 z M 98.3,77.4 c -1.7,3 -3.3,2.3 -6.2,6.7 -0.3,0.4 -1.1,-3.6 0.7,-9.1 a 12.6,12.6 0 0 1 5.9,-6.9 c 0.6,-0.1 1.7,5.7 -0.4,9.3 z M 88,88.1 c -1.8,3.9 -2.9,4 -5,6.4 -0.3,0.4 -1.8,-3.7 -0.4,-8.8 1.4,-5.1 4,-5.6 5.3,-7 1.3,-1.4 2,5.3 0.1,9.4 z m -8.4,6.6 a 10.3,10.3 0 0 1 -0.4,3 c -1.3,4.3 -3.9,6.2 -5.3,8.1 A 15.7,15.7 0 0 1 72.3,100 15.2,15.2 0 0 1 77.5,88.8 c 0.8,0 2.1,3.2 2.1,5.9 z m -8.5,12.8 a 14.9,14.9 0 0 1 -5.1,10.8 17.7,17.7 0 0 1 -2.2,-7.6 c -0.2,-6.3 2.4,-8.5 3.6,-9.7 0.5,1.8 3.7,3.2 3.7,6.5 z M 59,113.8 c 1.8,0.9 3.9,3.4 4.1,8.2 0.2,4.8 -3.2,8.7 -4.6,9.4 -0.9,-3.7 -2.6,-4.4 -2.6,-8 a 18,18 0 0 1 3.1,-9.6 z m 7.3,12.5 c 4.6,-2 9.6,-1.7 9.8,-1.5 0.2,0.2 -1.5,5.9 -5.9,8.2 -4.4,2.3 -9.5,2.7 -10,2.1 -0.5,-0.6 1.5,-6.8 6.1,-8.8 z m -0.4,-3.4 c 0.3,-1.5 3,-6.5 7.1,-8.3 v 0 a 18.4,18.4 0 0 1 9.4,-1.5 c 0.5,0.2 -1.7,5.6 -5.8,7.6 -4.1,2 -6.5,0.9 -10.7,2.2 z m 6.9,-11.8 c 0.2,-0.4 3.5,-6.4 7.4,-8.2 a 17.5,17.5 0 0 1 8.9,-1.4 c 0.3,0.1 -1.8,5.4 -6.2,7.6 -4.4,2.2 -10.3,2.5 -10.1,2 z m 8.9,-11.9 c -0.3,-0.2 4.4,-6.4 8.4,-8.3 a 15.6,15.6 0 0 1 8.4,-1 c 0.3,0.3 -1.9,5.5 -6.5,7.5 A 24.2,24.2 0 0 1 81.7,99.2 Z M 92.4,87.4 c -0.2,-0.2 3.4,-6.3 7.4,-7.9 4,-1.6 7.7,-0.1 8.9,0 1.2,0.1 -1.3,4.5 -6.6,6.4 -5.3,1.9 -9,1.8 -9.7,1.5 z m 12,-11.4 c 0.1,-0.3 4.1,-5.9 8.1,-7.3 a 16.4,16.4 0 0 1 9.2,-0.2 c 0.5,0.2 -2.8,5 -7.7,6.5 -4.9,1.5 -9.7,1.3 -9.6,1 z m 12.1,-9.9 c -0.5,-0.3 4.3,-5.7 8.2,-7.2 a 18,18 0 0 1 8.3,-1 c 0.3,0.2 -2.5,4.9 -7.1,6.7 -4.6,1.8 -8.8,1.9 -9.4,1.5 z M 50.2,175.3 C 28.6,158.1 15.6,132.1 15.6,105 a 89.3,89.3 0 0 1 130.8,-79.2 0.4,0.4 0 0 1 0.1,0.7 97.3,97.3 0 0 0 -10.2,11.4 73.1,73.1 0 0 0 -31.3,-7 74.3,74.3 0 0 0 -74.1,74.1 72.1,72.1 0 0 0 17.9,48.2 23.1,23.1 0 0 0 -1.9,9.4 25.6,25.6 0 0 0 3.3,12.7 z m 0.2,-24.8 H 50.3 A 69.2,69.2 0 0 1 33.9,105 71.2,71.2 0 0 1 105,33.9 70.1,70.1 0 0 1 134.6,40.3 22.6,22.6 0 0 0 130.5,42.9 63.1,63.1 0 0 0 105,37.8 67.3,67.3 0 0 0 37.8,105 c 0,16.1 5,30.2 14.8,42 -0.5,0.9 -1.3,2.1 -2.2,3.5 z m 3.5,-5.6 c -1.3,-1.2 -4.1,-4.3 -4.4,-8.3 V 136 c 0,-4.3 1.9,-8.6 2.4,-9 0.5,-0.4 5.3,3.3 5.4,8.7 a 14.4,14.4 0 0 1 -3.4,9.2 z m 8,-7.2 c 3.9,-1.8 9.6,-1.4 9.3,-1.1 -0.3,0.3 -1.8,5.8 -6.2,8 a 12.1,12.1 0 0 1 -8.7,1.3 c 2.3,-2.6 1.8,-6.4 5.6,-8.2 z m 5.2,46.5 c -0.6,-2.7 -0.4,-6.3 0.5,-7.3 0.9,-1 4.9,-1.2 5,-0.1 0.1,1.1 -1.1,5.4 0.3,10.2 -0.3,0.7 -4.6,0.4 -5.8,-2.8 z m 0.3,-11.1 c -0.3,-2 1.6,-3.9 1.6,-8.2 0,-4.3 -6.6,-12.6 -11.1,-17.3 a 19.5,19.5 0 0 0 7.9,-1.9 c 6.6,-3.1 7.9,-10.1 8.1,-10.4 a 11,11 0 0 0 -3.8,-0.4 l 0.8,-0.4 c 6.4,-3.5 8.1,-11 7.8,-11.1 a 17,17 0 0 0 -4,-0.3 l 2,-0.7 c 6.8,-2.7 8.7,-10.3 8.5,-10.6 a 16.1,16.1 0 0 0 -3.5,-0.4 l 1.9,-0.8 c 6.2,-3.1 8.4,-10.1 8.1,-10.3 a 10.5,10.5 0 0 0 -3.3,-0.4 23.7,23.7 0 0 0 4.5,-1.5 c 6.7,-2.9 8.9,-9.3 8.6,-9.6 a 10.9,10.9 0 0 0 -3,-0.5 34.5,34.5 0 0 0 4.4,-1.3 c 6.6,-2.2 9.2,-8.5 8.8,-8.6 L 108,77.6 a 24.5,24.5 0 0 0 6.6,-1.3 c 7.1,-2.4 9.6,-6.7 9.8,-8.6 a 6,6 0 0 0 -2.3,-0.8 29.3,29.3 0 0 0 4.7,-1.2 c 6.6,-2.7 9.4,-9.3 9.6,-9.8 a 29.3,29.3 0 0 0 3.9,-1.6 l 1.9,-0.9 1.6,1.1 c 1,0.6 1.4,0.8 0.9,1.2 C 122,75 105,99.5 97.6,111.3 c -0.2,0.4 -0.6,0.3 -1.3,0.3 -7.9,-0.6 -12.4,8.9 -8.9,17.8 -0.4,1.8 -4.2,5.3 -4.5,5.5 -0.3,0.2 -1,1.4 0.3,1.3 1.3,-0.1 4.2,-3.2 5.4,-4.5 0.4,0.6 2.2,2 1.3,2.8 A 63.6,63.6 0 0 1 76,145 c -2.6,1.2 4.2,2.1 15.7,-8.3 0.7,-0.6 1.5,2.4 2.5,3.7 -2,6.5 2.9,19.1 2.1,23 a 2.8,2.8 0 0 1 -2.8,2.7 c -11.4,0.3 -12.5,-0.3 -18.3,1.4 -2.7,0.8 -2,2.6 -0.1,2.1 1.9,-0.5 4.6,-1.5 16.9,-0.7 3.1,0.1 6.5,-0.6 6.5,-5.7 0,-5.1 -3.6,-18.4 -2.4,-20.3 a 6.9,6.9 0 0 0 3.5,1.4 c -0.2,4.5 7,19 3.8,27 -1.2,3 -6.4,2.7 -15.4,1.8 -15.3,-1.5 -20.3,1.8 -20.6,0 z m 35.1,9.9 c -5.9,2 -8.3,-4.9 -7.3,-6.4 1,-1.5 4.4,1 7.3,-0.9 2.9,-1.9 3.5,6.1 0,7.3 z m -27,4.3 c -0.8,-3.7 -1.1,-10 0.4,-11.5 1.5,-1.5 4.9,-0.9 4.8,0.2 -0.3,4.3 -2.1,9.2 1.2,14.1 1.3,1.9 -5.2,2.2 -6.4,-2.8 z m 11.4,4.2 c -1.6,-0.4 -6,-7.4 -2.4,-15.8 0.3,-0.8 5.8,-0.3 6.8,0 1,0.3 -0.8,6.8 6.8,9.8 0.7,0.3 -0.1,8.8 -11.2,6 z m 47.2,-23.3 c -2.5,8.8 -3.8,12.3 0,21.9 0.5,1.3 0.9,2.3 -0.2,2.1 -7.7,-1.4 -9.4,-2.6 -33.7,-0.6 -1.7,0.2 0.6,-3.4 0.3,-5.8 2.2,-0.3 5.8,-1.3 6.5,-4.9 0.7,-3.6 -2.1,-7.6 -1.8,-8.2 3.5,-6.7 -0.2,-14.1 -3.1,-26.6 -0.3,-1.2 0.4,-1.7 0.9,-1.1 15.6,16.9 25.5,20.2 30.9,21.8 0.5,0.2 0.4,0.8 0.2,1.4 z M 174,122.1 c -3.3,2.9 -8.3,3.1 -10.3,4.9 -2,1.8 -1.5,2.5 -0.4,5.2 1.1,2.7 1.1,1.7 -1.1,2.3 -2.2,0.6 -4.1,5.8 -8.8,4.9 -1.8,-0.3 -0.5,0.8 0.2,0.9 2.6,0.3 3.7,-0.5 4.6,-1.4 0.9,-0.9 2.2,-2.4 3.6,-2.9 1.4,-0.5 2.9,-0.5 3,0.6 0.1,1.1 -1.9,2.1 -2.7,2.5 1,0.5 3.9,1.9 1.4,3.6 -2.5,1.7 -4.6,-0.5 -4.9,-0.7 -0.3,-0.2 -1.7,-0.2 -1.3,0.3 0.4,0.5 5.2,1.3 4.5,2.2 -3.5,4.7 -0.6,7.5 -1.7,12.3 -1.1,4.8 -7.7,7.5 -12.8,8.4 -17.4,3.1 -34.3,-11.6 -44.2,-22.8 0.9,-2.1 0.8,-4.8 -0.1,-3.8 -0.9,1 -0.7,2.4 -2.8,2.9 -3.9,1 -5.7,-5.9 -6.9,-7.1 -4.8,-4.7 -6.7,-11.4 -3.9,-17.3 2.8,-5.9 9,-4.7 11.4,-1.1 2.4,3.6 1.7,7 3.4,8.3 1.7,1.3 4.8,0.2 5.4,0 0.6,-0.2 1.7,4.3 8,4.1 6.3,-0.2 5.9,-10.7 6.9,-11.6 8.6,-8.4 4.2,-15.9 2.6,-17.6 -1.6,-1.7 1,-3.6 1.5,-3.7 a 13,13 0 0 0 9.4,-7.7 c 0,0 8.4,-0.2 11.4,-6.2 0.8,-1.6 3.3,1.5 8.9,-2.9 a 0.8,0.8 0 0 1 1.4,0.3 c 3.7,8.9 5.2,11.3 4.9,15.8 -0.3,4.5 8.7,21.5 9.4,23.1 0.7,1.6 0.8,3.4 0,4.2 z"
         class="minerva-base-style"
         inkscape:connector-curvature="0" />
      <path
         id="path218"
         d="m 153.8,90 c -4.9,0.2 -10.6,6.2 -12.4,7 -1.8,0.8 -1.3,1.5 -0.2,1.1 1.1,-0.4 5.9,-4.7 10.7,-6.4 4.8,-1.7 3.6,1.8 5,1.6 1.4,-0.2 -0.3,-3.4 -3.1,-3.3 z"
         class="minerva-base-style"
         inkscape:connector-curvature="0" />
      <path
         id="path220"
         d="m 154.9,94.8 c -0.4,0.1 0.4,2.2 -1.7,2.3 -4.6,0.3 -8.3,4.7 -11.1,6 a 12.9,12.9 0 0 1 -3.8,1.4 0.30413813,0.30413813 0 0 0 0.1,0.6 c 11.7,1.6 16.2,1.1 16.3,0.7 0.1,-0.4 -0.6,-1.2 -0.4,-1.7 a 11.3,11.3 0 0 0 0.1,-5.5 c -0.2,-0.8 1.8,-0.3 1.8,-1.3 0,-1 -0.6,-2.6 -1.3,-2.5 z m -1.8,9.3 c -0.2,0.9 -5.5,0.5 -8.3,0.2 -0.7,0 -1.8,-0.1 0.3,-1.4 2.1,-1.3 4.1,-2.8 7.2,-3.4 a 0.8,0.8 0 0 1 0.8,0.6 10.6,10.6 0 0 1 0,4 z"
         class="minerva-base-style"
         inkscape:connector-curvature="0" />
      <path
         id="path222"
         d="m 168.4,120.8 c -0.9,0 -4.5,1.6 -5.9,2.5 -1.4,0.9 -4.4,2.7 -4.2,-0.8 0.1,-1.3 0.9,-4.4 0.9,-5.3 0,-0.9 -1,-0.7 -1.1,0 a 36.9,36.9 0 0 1 -0.7,5.3 c -0.4,1.8 1.2,4 3.6,2.7 2.4,-1.3 4.8,-2.9 7.3,-3.4 0.6,-0.1 0.7,-1 0.1,-1 z"
         class="minerva-base-style"
         inkscape:connector-curvature="0" />
      <path
         id="path224"
         d="m 100.5,133.6 c -0.7,-0.3 -0.5,1.2 -1.4,1 -0.9,-0.2 -0.2,-1.3 -1.8,-3 -1.6,-1.7 -2.8,-1.2 -4.3,-3.6 -1.5,-2.4 -0.3,-12 3.1,-10.8 3.4,1.2 1.6,5 1,8 -0.6,3 2.5,2.8 2.8,2.1 0.3,-0.7 -1.1,-0.9 -1.4,-1.9 -0.3,-1 3.5,-7.6 -1.8,-9.4 -3.8,-1.3 -6.4,3.6 -5.9,8.9 a 8,8 0 0 0 5.1,7.1 c 2.3,0.8 0.6,4 3.7,4 1.4,0 1.7,-2.1 0.9,-2.4 z"
         class="minerva-base-style"
         inkscape:connector-curvature="0" />
      <path
         id="path226"
         d="m 131.3,33.4 c 0.2,0.1 0.3,0 0.5,-0.1 l 6.5,-8.3 a 0.5,0.5 0 0 0 -0.2,-0.6 L 137,24 a 0.4,0.4 0 0 0 -0.5,0.1 l -6.5,8.3 c -0.2,0.2 -0.1,0.5 0.2,0.6 z"
         class="minerva-base-style"
         inkscape:connector-curvature="0" />
      <path
         id="path228"
         d="m 119.2,30 1.1,0.3 a 0.5,0.5 0 0 0 0.5,-0.3 l 3.8,-9.4 A 0.4,0.4 0 0 0 124.3,20 l -1.2,-0.2 h -0.3 l -3.9,9.6 a 0.4,0.4 0 0 0 0.3,0.6 z"
         class="minerva-base-style"
         inkscape:connector-curvature="0" />
      <path
         id="path230"
         d="m 105.8,28.7 h 1.1 c 0.2,0.1 0.4,-0.1 0.4,-0.3 l 1,-10 a 0.5,0.5 0 0 0 -0.4,-0.5 h -1.1 c -0.3,0 -0.4,0.2 -0.5,0.4 l -0.9,10 a 0.4,0.4 0 0 0 0.4,0.4 z"
         class="minerva-base-style"
         inkscape:connector-curvature="0" />
      <path
         id="path232"
         d="m 92.8,29.7 1.1,-0.2 c 0.2,0 0.4,-0.2 0.3,-0.4 l -1.9,-9.9 c 0,-0.2 -0.2,-0.4 -0.4,-0.3 h -1.2 c -0.2,0.1 -0.4,0.3 -0.3,0.5 l 1.9,9.9 c 0,0.3 0.2,0.4 0.5,0.4 z"
         class="minerva-base-style"
         inkscape:connector-curvature="0" />
      <path
         id="path234"
         d="M 79.4,32.8 79.9,33 81,32.6 A 0.4,0.4 0 0 0 81.3,32 l -4.6,-9 a 0.4,0.4 0 0 0 -0.5,-0.2 l -1,0.3 a 0.4,0.4 0 0 0 -0.3,0.6 z"
         class="minerva-base-style"
         inkscape:connector-curvature="0" />
      <path
         id="path236"
         d="m 67,38.5 c 0.1,0.2 0.3,0.2 0.5,0.1 l 1,-0.6 a 0.4,0.4 0 0 0 0.1,-0.6 l -6.7,-7.7 c -0.2,-0.2 -0.4,-0.2 -0.5,-0.1 l -1,0.6 c -0.3,0.1 -0.3,0.4 -0.1,0.6 z"
         class="minerva-base-style"
         inkscape:connector-curvature="0" />
      <path
         id="path238"
         d="m 55.4,46.7 c 0.2,0.1 0.4,0.1 0.5,-0.1 l 0.9,-0.7 a 0.5,0.5 0 0 0 0,-0.7 l -8.5,-5.9 h -0.5 l -0.9,0.8 a 0.5,0.5 0 0 0 0,0.7 z"
         class="minerva-base-style"
         inkscape:connector-curvature="0" />
      <path
         id="path240"
         d="m 45.4,57.1 a 0.4,0.4 0 0 0 0.4,-0.2 L 46.6,56 c 0.2,-0.2 0.1,-0.5 -0.2,-0.6 l -9.8,-3.8 c -0.2,-0.1 -0.4,-0.1 -0.5,0.1 l -0.7,0.9 a 0.4,0.4 0 0 0 0.2,0.7 z"
         class="minerva-base-style"
         inkscape:connector-curvature="0" />
      <path
         id="path242"
         d="m 26.8,67.8 10.5,1.5 c 0.2,0 0.4,-0.1 0.4,-0.3 l 0.6,-1 A 0.4,0.4 0 0 0 38,67.4 L 27.5,65.9 27,66.1 a 5.4,5.4 0 0 1 -0.5,1.1 0.4,0.4 0 0 0 0.3,0.6 z"
         class="minerva-base-style"
         inkscape:connector-curvature="0" />
      <path
         id="path244"
         d="m 21.1,83.7 10.7,-1 a 0.3,0.3 0 0 0 0.3,-0.3 7.6,7.6 0 0 0 0.4,-1.1 0.4,0.4 0 0 0 -0.4,-0.6 l -10.8,1 -0.4,0.3 -0.3,1.2 c 0,0.3 0.2,0.6 0.5,0.5 z"
         class="minerva-base-style"
         inkscape:connector-curvature="0" />
      <path
         id="path246"
         d="m 29.2,96.5 c 0,-0.4 0.1,-0.9 0.1,-1.3 0,-0.4 -0.2,-0.5 -0.5,-0.4 l -10.4,3.6 c -0.2,0.1 -0.3,0.2 -0.3,0.4 0,0.2 -0.1,0.8 -0.1,1.2 a 0.4,0.4 0 0 0 0.6,0.4 l 10.3,-3.6 a 0.3,0.3 0 0 0 0.3,-0.3 z"
         class="minerva-base-style"
         inkscape:connector-curvature="0" />
      <path
         id="path248"
         d="m 28.9,110.8 v -1.3 a 0.5,0.5 0 0 0 -0.7,-0.4 l -9.4,6.3 c -0.2,0 -0.2,0.2 -0.2,0.4 0,0.2 0.1,0.8 0.1,1.2 a 0.5,0.5 0 0 0 0.7,0.3 l 9.4,-6.2 c 0.1,-0.1 0.2,-0.2 0.1,-0.3 z"
         class="minerva-base-style"
         inkscape:connector-curvature="0" />
      <path
         id="path250"
         d="M 31.3,125 31,123.7 a 0.4,0.4 0 0 0 -0.7,-0.2 l -7.7,8.5 c -0.1,0.1 -0.2,0.3 -0.1,0.4 0.1,0.1 0.3,0.8 0.4,1.2 a 0.4,0.4 0 0 0 0.7,0.2 l 7.6,-8.4 c 0.1,-0.1 0.1,-0.2 0.1,-0.4 z"
         class="minerva-base-style"
         inkscape:connector-curvature="0" />
      <path
         id="path252"
         d="M 35.2,137.7 29.8,148 c -0.1,0.1 0,0.3 0,0.4 l 0.7,1.2 a 0.4,0.4 0 0 0 0.7,-0.1 l 5.4,-10.2 c 0,-0.1 0.1,-0.2 0,-0.4 L 36,137.7 a 0.5,0.5 0 0 0 -0.8,0 z"
         class="minerva-base-style"
         inkscape:connector-curvature="0" />
      <path
         id="path254"
         d="m 42.9,149.3 c -0.2,-0.3 -0.7,-0.2 -0.7,0.1 l -2.9,12 c -0.1,0.2 0,0.3 0,0.4 l 1,1 a 0.4,0.4 0 0 0 0.7,-0.1 l 2.8,-11.9 c 0.1,-0.1 0,-0.2 0,-0.3 z"
         class="minerva-base-style"
         inkscape:connector-curvature="0" />
    </g>
    <g
       id="g266"
       transform="translate(366.666,41.434619)">
      <g
         id="g260"
         style="fill:#006c66"
         transform="translate(0,99.060381)">
        <path
           id="path258"
           d="M 5.5,-62 H 22.094 L 37.922,-17.029 53.656,-62 H 70.328 V 0 H 57.594 V -16.951 L 58.859,-46.213 42.234,0 h -8.718 l -16.594,-46.166 1.281,29.215 V 0 H 5.5 Z m 124.063,62 -4.282,-12.719 h -22.25 L 98.797,0 h -13.5 l 22.937,-62 H 120 L 143.063,0 Z M 114.109,-46.339 106.453,-23 h 15.406 z M 168,-62 179.547,-40.631 191.109,-62 h 14.594 L 187.766,-31.259 206.172,0 H 191.391 L 179.547,-21.715 167.703,0 H 152.938 L 171.344,-31.259 153.391,-62 Z m 107.328,40.297 H 264.203 V 0 H 251.5 v -62 h 24.031 q 6.953,0 12.219,2.564 5.266,2.564 8.102,7.281 2.836,4.718 2.836,10.745 v 0 q 0,9.151 -6.204,14.429 -6.203,5.278 -17.156,5.278 z M 264.203,-51.719 V -32 h 11.328 q 5.047,0 7.688,-2.415 2.64,-2.415 2.64,-6.91 v 0 q 0,-4.607 -2.664,-7.461 -2.664,-2.853 -7.367,-2.933 v 0 z m 65,-10.281 v 51.797 h 26.953 V 0 H 316.5 v -62 z m 82.36,62 -4.282,-12.719 h -22.25 L 380.797,0 h -13.5 l 22.937,-62 H 402 L 425.063,0 Z M 396.109,-46.339 388.453,-23 h 15.406 z M 489.609,-62 V 0 H 476.906 L 452.203,-40.804 V 0 H 439.5 v -62 h 12.703 l 24.75,40.883 V -62 Z m 55.563,41.625 h 12.703 q -0.719,9.953 -7.344,15.664 Q 543.906,1 533.078,1 v 0 q -11.859,0 -18.648,-7.937 -6.789,-7.937 -6.789,-21.791 v 0 -3.747 q 0,-8.846 3.132,-15.579 3.133,-6.732 8.954,-10.339 5.82,-3.607 13.507,-3.607 v 0 q 10.672,0 17.188,5.719 6.516,5.718 7.531,16.047 v 0 h -12.687 q -0.469,-5.969 -3.328,-8.657 -2.86,-2.687 -8.704,-2.687 v 0 q -6.343,0 -9.492,4.513 -3.148,4.514 -3.242,14.006 v 0 4.622 q 0,9.911 3.031,14.494 3.032,4.584 9.547,4.584 v 0 q 5.875,0 8.774,-2.688 2.898,-2.687 3.32,-8.328 z M 609.625,0 l -15.828,-24.875 -6.594,7.154 V 0 H 574.5 v -62 h 12.703 v 28.099 l 5.578,-7.705 L 608.484,-62 h 15.61 L 602.219,-34.451 624.734,0 Z M 682,-62 V 0 h -12.687 v -62 z m 70.609,0 V 0 H 739.906 L 715.203,-40.804 V 0 H 702.5 v -62 h 12.703 l 24.75,40.883 V -62 Z m 51.844,46.037 v 0 q 0,-3.566 -2.539,-5.473 -2.539,-1.908 -9.141,-4.032 -6.601,-2.125 -10.46,-4.192 v 0 q -10.485,-5.629 -10.485,-15.191 v 0 q 0,-4.975 2.813,-8.87 2.812,-3.894 8.078,-6.087 Q 787.984,-62 794.547,-62 v 0 q 6.609,0 11.766,2.387 5.156,2.386 8.015,6.716 2.86,4.33 2.86,9.85 v 0 H 804.5 q 0,-4.19 -2.672,-6.509 -2.672,-2.319 -7.484,-2.319 v 0 q -4.656,0 -7.242,1.945 -2.586,1.945 -2.586,5.11 v 0 q 0,2.979 3.031,4.986 3.031,2.007 8.906,3.782 v 0 q 10.828,3.238 15.781,8.049 4.954,4.81 4.954,11.971 v 0 q 0,7.971 -6.047,12.502 Q 805.094,1 794.844,1 v 0 q -7.11,0 -12.946,-2.589 -5.835,-2.588 -8.906,-7.097 -3.07,-4.509 -3.07,-10.433 v 0 h 12.734 q 0,10.088 12.188,10.088 v 0 q 4.531,0 7.07,-1.822 2.539,-1.822 2.539,-5.11 z M 880.875,-62 v 10.281 H 862.016 V 0 H 849.313 V -51.719 H 830.688 V -62 Z M 910,-62 V 0 h -12.687 v -62 z m 65.875,0 v 10.281 H 957.016 V 0 H 944.313 V -51.719 H 925.688 V -62 Z m 49.516,0 h 12.75 v 40.933 q 0,10.198 -6.328,16.133 Q 1025.484,1 1014.516,1 v 0 q -10.782,0 -17.133,-5.761 -6.352,-5.761 -6.477,-15.833 v 0 V -62 h 12.703 v 41.082 q 0,6.126 2.899,8.92 2.898,2.795 8.008,2.795 v 0 q 10.718,0 10.875,-11.368 v 0 z m 78.484,0 v 10.281 h -18.859 V 0 h -12.703 v -51.719 h -18.625 V -62 Z m 52.703,25 v 9.937 h -24.375 v 16.86 h 28.594 V 0 H 1119.5 v -62 h 41.219 v 10.281 h -28.516 V -37 Z"
           inkscape:connector-curvature="0" />
      </g>
      <g
         id="g264"
         style="fill:#006c66"
         transform="translate(0,179.07038)">
        <path
           id="path262"
           d="m 33.219,-27 v 5.359 H 12.344 V 0 H 5.781 v -50 h 30.828 v 5.406 H 12.344 V -27 Z m 51.844,0.965 v 3.132 q 0,7.293 -2.461,12.731 -2.461,5.438 -6.977,8.305 Q 71.109,1 65.094,1 v 0 q -5.875,0 -10.422,-2.883 -4.547,-2.882 -7.055,-8.219 -2.508,-5.337 -2.586,-12.349 v 0 -3.584 q 0,-7.152 2.5,-12.645 2.5,-5.492 7.063,-8.406 Q 59.156,-50 65.031,-50 v 0 q 5.985,0 10.547,2.883 4.563,2.882 7.024,8.352 2.461,5.469 2.461,12.73 z m -6.532,3.614 v -3.675 q 0,-8.828 -3.554,-13.546 -3.555,-4.717 -9.946,-4.717 v 0 q -6.218,0 -9.789,4.717 -3.57,4.718 -3.679,13.095 v 0 3.643 q 0,8.548 3.609,13.437 3.609,4.889 9.922,4.889 v 0 q 6.359,0 9.844,-4.617 3.484,-4.616 3.593,-13.226 z M 126.828,0 116.031,-20.625 H 104.344 V 0 H 97.75 v -50 h 16.469 q 8.406,0 12.937,3.794 4.532,3.794 4.532,11.041 v 0 q 0,4.614 -2.516,8.029 -2.516,3.414 -6.984,5.117 v 0 l 11.687,21.604 V 0 Z M 104.344,-44.594 V -26 h 10.078 q 4.891,0 7.781,-2.496 2.891,-2.495 2.891,-6.67 v 0 q 0,-4.544 -2.758,-6.971 -2.758,-2.426 -7.945,-2.457 v 0 z M 181.031,0 h -17.25 v -50 h 16.266 q 8.094,0 12.18,3.32 4.086,3.321 4.086,9.823 v 0 q 0,3.452 -1.985,6.106 -1.984,2.655 -5.39,4.11 v 0 q 4.031,1.161 6.375,4.372 2.343,3.21 2.343,7.661 v 0 q 0,6.819 -4.343,10.714 Q 188.969,0 181.031,0 Z m 0.25,-23.734 h -10.937 v 18.375 h 10.828 q 4.578,0 7.226,-2.443 2.649,-2.443 2.649,-6.705 v 0 q 0,-9.227 -9.766,-9.227 z m -10.937,-20.86 V -29 h 9.906 q 4.313,0 6.891,-2.119 2.578,-2.118 2.578,-5.755 v 0 q 0,-4.052 -2.391,-5.886 -2.39,-1.834 -7.281,-1.834 v 0 z M 217.813,-50 V 0 h -6.563 v -50 z m 53.25,23.965 v 3.132 q 0,7.293 -2.461,12.731 -2.461,5.438 -6.977,8.305 Q 257.109,1 251.094,1 v 0 q -5.875,0 -10.422,-2.883 -4.547,-2.882 -7.055,-8.219 -2.508,-5.337 -2.586,-12.349 v 0 -3.584 q 0,-7.152 2.5,-12.645 2.5,-5.492 7.063,-8.406 Q 245.156,-50 251.031,-50 v 0 q 5.985,0 10.547,2.883 4.563,2.882 7.024,8.352 2.461,5.469 2.461,12.73 z m -6.532,3.614 v -3.675 q 0,-8.828 -3.554,-13.546 -3.555,-4.717 -9.946,-4.717 v 0 q -6.218,0 -9.789,4.717 -3.57,4.718 -3.679,13.095 v 0 3.643 q 0,8.548 3.609,13.437 3.609,4.889 9.922,4.889 v 0 q 6.359,0 9.844,-4.617 3.484,-4.616 3.593,-13.226 z M 320.516,-24 v 17.914 q -2.532,3.558 -7.055,5.322 Q 308.938,1 302.922,1 v 0 q -6.094,0 -10.805,-2.852 -4.711,-2.851 -7.297,-8.094 -2.586,-5.244 -2.648,-12.162 v 0 -4.332 q 0,-11.219 5.242,-17.39 5.242,-6.17 14.758,-6.17 v 0 q 7.781,0 12.531,3.984 4.75,3.985 5.813,11.297 v 0 h -6.563 q -1.844,-9.875 -11.75,-9.875 v 0 q -6.594,0 -10,4.617 -3.406,4.617 -3.437,13.367 v 0 4.049 q 0,8.345 3.828,13.266 3.828,4.92 10.359,4.92 v 0 q 3.688,0 6.461,-0.794 2.774,-0.795 4.57,-2.671 v 0 -10.832 H 302.469 V -24 Z m 41.39,-5 v 5.375 h -21.562 v 18.266 h 25.047 V 0 h -31.61 v -50 h 31.266 v 5.406 H 340.344 V -29 Z m 53.157,2.965 v 3.132 q 0,7.293 -2.461,12.731 -2.461,5.438 -6.977,8.305 Q 401.109,1 395.094,1 v 0 q -5.875,0 -10.422,-2.883 -4.547,-2.882 -7.055,-8.219 -2.508,-5.337 -2.586,-12.349 v 0 -3.584 q 0,-7.152 2.5,-12.645 2.5,-5.492 7.063,-8.406 Q 389.156,-50 395.031,-50 v 0 q 5.985,0 10.547,2.883 4.563,2.882 7.024,8.352 2.461,5.469 2.461,12.73 z m -6.532,3.614 v -3.675 q 0,-8.828 -3.554,-13.546 -3.555,-4.717 -9.946,-4.717 v 0 q -6.218,0 -9.789,4.717 -3.57,4.718 -3.679,13.095 v 0 3.643 q 0,8.548 3.609,13.437 3.609,4.889 9.922,4.889 v 0 q 6.359,0 9.844,-4.617 3.484,-4.616 3.593,-13.226 z m 49.25,6.937 h 6.61 q -0.938,7.906 -5.836,12.195 Q 453.656,1 445.516,1 v 0 q -8.813,0 -14.133,-6.311 -5.32,-6.31 -5.32,-16.875 v 0 -4.768 q 0,-6.919 2.484,-12.17 2.484,-5.251 7.023,-8.063 Q 440.109,-50 446.094,-50 v 0 q 7.937,0 12.719,4.43 4.781,4.429 5.578,12.257 v 0 h -6.61 q -0.843,-5.953 -3.703,-8.617 -2.859,-2.664 -7.984,-2.664 v 0 q -6.281,0 -9.852,4.632 -3.57,4.633 -3.57,13.181 v 0 4.796 q 0,8.081 3.383,12.845 3.383,4.765 9.461,4.765 v 0 q 5.468,0 8.39,-2.477 2.922,-2.476 3.875,-8.632 z M 514.031,-50 V 0 h -6.609 V -22.625 H 482.344 V 0 h -6.563 v -50 h 6.563 v 22 h 25.078 v -22 z m 42.875,21 v 5.375 h -21.562 v 18.266 h 25.047 V 0 h -31.61 v -50 h 31.266 v 5.406 H 535.344 V -29 Z m 13.875,-21 h 8.469 L 595.516,-9.199 611.797,-50 h 8.5 V 0 h -6.563 V -19.466 L 614.359,-40.487 598.016,0 H 593 l -16.312,-40.392 0.656,20.926 V 0 h -6.563 z m 71.032,0 V 0 h -6.563 v -50 z m 29.625,28.188 v 0 q -8.438,-2.415 -12.282,-5.945 -3.843,-3.529 -3.843,-8.702 v 0 q 0,-5.875 4.695,-9.708 Q 664.703,-50 672.219,-50 v 0 q 5.14,0 9.156,1.984 4.016,1.985 6.219,5.469 2.203,3.484 2.203,7.625 v 0 h -6.594 q 0,-4.516 -2.875,-7.094 -2.875,-2.578 -8.109,-2.578 v 0 q -4.844,0 -7.563,2.124 -2.718,2.123 -2.718,5.903 v 0 q 0,3.034 2.578,5.126 2.578,2.092 8.781,3.827 6.203,1.734 9.711,3.831 3.508,2.097 5.195,4.896 1.688,2.799 1.688,6.587 v 0 q 0,6.034 -4.711,9.667 Q 680.469,1 672.563,1 v 0 q -5.125,0 -9.571,-1.969 -4.445,-1.969 -6.851,-5.383 -2.407,-3.414 -2.407,-7.757 v 0 h 6.594 q 0,4.515 3.336,7.125 3.336,2.609 8.899,2.609 v 0 q 5.203,0 7.968,-2.109 2.766,-2.11 2.766,-5.752 0,-3.643 -2.563,-5.636 -2.562,-1.992 -9.296,-3.94 z M 735.156,-50 v 5.406 H 719.172 V 0 h -6.531 V -44.594 H 696.672 V -50 Z M 774.828,0 764.031,-20.625 H 752.344 V 0 h -6.594 v -50 h 16.469 q 8.406,0 12.937,3.794 4.532,3.794 4.532,11.041 v 0 q 0,4.614 -2.516,8.029 -2.516,3.414 -6.984,5.117 v 0 l 11.687,21.604 V 0 Z M 752.344,-44.594 V -26 h 10.078 q 4.891,0 7.781,-2.496 2.891,-2.495 2.891,-6.67 v 0 q 0,-4.544 -2.758,-6.971 -2.758,-2.426 -7.945,-2.457 v 0 z M 792.031,-50 804.953,-24.898 817.938,-50 h 7.453 l -17.157,31.35 V 0 h -6.562 V -18.65 L 784.516,-50 Z"
           inkscape:connector-curvature="0" />
      </g>
    </g>
    <g
       id="g276"
       transform="matrix(4.9554012,0,0,4.9554012,1588.6289,0)">
      <style
         id="style824"
         type="text/css">
	.st0{fill:#006C66;}
</style>
      <path
         id="path874"
         d="M 30.27,0 C 13.55,0 0,13.55 0,30.27 0,46.99 13.55,60.54 30.27,60.54 46.99,60.54 60.54,46.99 60.54,30.27 60.55,13.55 46.99,0 30.27,0 Z m 8.67,30.27 c 0,3.5 -2.84,6.33 -6.33,6.33 -3.5,0 -6.34,-2.83 -6.34,-6.33 H 6.09 C 6.09,15.6 17.98,3.7100001 32.65,3.7100001 47.32,3.7100001 59.21,15.6 59.21,30.27 Z"
         class="st0"
         inkscape:connector-curvature="0"
         style="fill:#006c66" />
      <g
         transform="translate(-251.19015,-6.7689939)"
         id="g952" />
      <g
         transform="translate(-251.19015,-6.7689939)"
         id="g954" />
      <g
         transform="translate(-251.19015,-6.7689939)"
         id="g956" />
      <g
         transform="translate(-251.19015,-6.7689939)"
         id="g958" />
      <g
         transform="translate(-251.19015,-6.7689939)"
         id="g960" />
      <g
         transform="translate(-251.19015,-6.7689939)"
         id="g962" />
    </g>
  </g>
</svg>
